<svg width="55" height="54" viewBox="0 0 55 54" fill="none" xmlns="http://www.w3.org/2000/svg">
<path d="M44.6001 16.3L29.2481 7.789C28.8661 7.57529 28.4357 7.46307 27.9981 7.46307C27.5604 7.46307 27.13 7.57529 26.7481 7.789L11.4001 16.295C10.9981 16.5178 10.663 16.8442 10.4297 17.2402C10.1964 17.6362 10.0732 18.0874 10.0731 18.547V35.453C10.074 35.9118 10.1975 36.362 10.4308 36.757C10.6641 37.1521 10.9987 37.4776 11.4001 37.7L26.7531 46.206C27.135 46.4197 27.5654 46.5319 28.0031 46.5319C28.4407 46.5319 28.8711 46.4197 29.2531 46.206L44.6001 37.7C45.002 37.4771 45.3371 37.1508 45.5704 36.7548C45.8037 36.3588 45.9269 35.9076 45.9271 35.448V18.547C45.9261 18.0882 45.8026 17.638 45.5693 17.2429C45.336 16.8479 45.0014 16.5224 44.6001 16.3ZM27.7751 9.634C27.844 9.59546 27.9216 9.57523 28.0006 9.57523C28.0795 9.57523 28.1571 9.59546 28.2261 9.634L34.3561 13.034L19.5701 21.222L13.3001 17.655L27.7751 9.634ZM26.9461 43.907L12.4221 35.86C12.3493 35.8198 12.2887 35.7608 12.2465 35.6893C12.2043 35.6177 12.182 35.5361 12.1821 35.453V19.453L19.0341 23.353H19.0391L26.9461 27.853V43.907ZM21.7181 22.443L36.5321 14.235L42.9031 17.765L28.0031 26.018L21.7181 22.443ZM43.8181 35.452C43.8181 35.5351 43.7958 35.6167 43.7536 35.6883C43.7114 35.7598 43.6508 35.8188 43.5781 35.859L29.0541 43.907V27.849L43.8181 19.669V35.452Z" fill="#83B933"/>
<path d="M20.6 26.839L15.012 23.762C14.8515 23.6735 14.6706 23.6283 14.4873 23.6311C14.3039 23.6338 14.1245 23.6843 13.9667 23.7776C13.8088 23.8709 13.6781 24.0038 13.5873 24.1631C13.4965 24.3224 13.4489 24.5026 13.449 24.686V29.144C13.4491 29.3328 13.4997 29.5181 13.5958 29.6806C13.6918 29.8431 13.8297 29.9769 13.995 30.068L19.583 33.145C19.7436 33.2332 19.9244 33.2781 20.1077 33.2752C20.2909 33.2723 20.4702 33.2218 20.6279 33.1285C20.7857 33.0353 20.9164 32.9026 21.0072 32.7434C21.0981 32.5843 21.1459 32.4042 21.146 32.221V27.763C21.1461 27.5742 21.0955 27.3888 20.9995 27.2263C20.9034 27.0638 20.7655 26.93 20.6 26.839ZM19.037 30.439L15.558 28.523V26.47L19.037 28.386V30.436V30.439Z" fill="#83B933"/>
<path d="M25.0001 37.989L22.2001 36.45C21.9552 36.3214 21.6697 36.2941 21.4049 36.3739C21.1401 36.4538 20.9173 36.6344 20.7843 36.8769C20.6514 37.1195 20.619 37.4045 20.6942 37.6706C20.7693 37.9368 20.9459 38.1628 21.1861 38.3L23.9801 39.839C24.2254 39.9743 24.5144 40.0065 24.7835 39.9287C25.0526 39.8509 25.2798 39.6693 25.4151 39.424C25.5503 39.1787 25.5826 38.8897 25.5048 38.6206C25.4269 38.3514 25.2454 38.1243 25.0001 37.989Z" fill="#83B933"/>
<path d="M50.07 11.448L52.016 9.50001C52.1637 9.3526 52.2644 9.16467 52.3051 8.96003C52.3459 8.75539 52.325 8.54324 52.2452 8.35047C52.1653 8.1577 52.03 7.99299 51.8564 7.87719C51.6828 7.7614 51.4787 7.69973 51.27 7.70001H46.033C45.7532 7.70001 45.4849 7.81117 45.287 8.00902C45.0892 8.20687 44.978 8.47521 44.978 8.75501V13.993C44.9778 14.2017 45.0394 14.4057 45.1552 14.5793C45.271 14.7529 45.4357 14.8882 45.6285 14.9681C45.8213 15.048 46.0334 15.0689 46.2381 15.0281C46.4427 14.9873 46.6306 14.8867 46.778 14.739L48.555 12.962C51.5961 17.4166 53.1082 22.7384 52.8637 28.1265C52.6191 33.5146 50.6313 38.6776 47.1992 42.8384C43.7671 46.9992 39.0765 49.9328 33.8332 51.1977C28.59 52.4626 23.0777 51.9903 18.126 49.852C17.9981 49.7915 17.8592 49.7574 17.7178 49.7517C17.5763 49.746 17.4352 49.7688 17.3028 49.8188C17.1703 49.8688 17.0493 49.9449 16.9469 50.0426C16.8445 50.1403 16.7628 50.2577 16.7067 50.3876C16.6506 50.5176 16.6212 50.6575 16.6203 50.799C16.6193 50.9406 16.6469 51.0809 16.7014 51.2115C16.7558 51.3422 16.836 51.4606 16.9371 51.5596C17.0382 51.6587 17.1583 51.7363 17.29 51.788C20.664 53.2473 24.3011 54.0001 27.977 54C29.6164 53.9996 31.2523 53.8514 32.865 53.557C37.3221 52.7403 41.5019 50.8149 45.0193 47.9584C48.5368 45.1019 51.2787 41.4061 52.9926 37.2114C54.7064 33.0168 55.337 28.4583 54.8263 23.956C54.3156 19.4536 52.6799 15.1522 50.07 11.448ZM47.087 11.448V9.81101H48.724L47.087 11.448Z" fill="#83B933"/>
<path d="M15.0911 48.284L15.0501 48.259C14.8116 48.1203 14.5283 48.0805 14.2609 48.1482C13.9935 48.2158 13.7632 48.3855 13.6194 48.6208C13.4756 48.8562 13.4296 49.1385 13.4914 49.4074C13.5532 49.6762 13.7179 49.9101 13.9501 50.059L13.9911 50.084C14.1093 50.1599 14.2415 50.2113 14.3799 50.2354C14.5183 50.2594 14.6601 50.2556 14.797 50.2241C14.9339 50.1927 15.0631 50.1342 15.1771 50.0521C15.2911 49.97 15.3876 49.866 15.4608 49.7461C15.5341 49.6262 15.5826 49.4929 15.6037 49.3541C15.6247 49.2152 15.6178 49.0735 15.5834 48.9373C15.549 48.8011 15.4877 48.6732 15.4031 48.561C15.3186 48.4488 15.2125 48.3547 15.0911 48.284Z" fill="#83B933"/>
<path d="M42.1911 4.02702L42.1391 4.00002C42.0209 3.92747 41.8896 3.8789 41.7526 3.8571C41.6156 3.83529 41.4757 3.84068 41.3409 3.87295C41.206 3.90522 41.0788 3.96373 40.9665 4.04516C40.8543 4.12659 40.7591 4.22933 40.6866 4.34752C40.614 4.46571 40.5655 4.59703 40.5436 4.73399C40.5218 4.87095 40.5272 5.01086 40.5595 5.14574C40.5918 5.28062 40.6503 5.40782 40.7317 5.52008C40.8131 5.63234 40.9159 5.72747 41.0341 5.80002L41.0861 5.83202C41.3248 5.97855 41.6119 6.02426 41.8843 5.95909C42.1567 5.89392 42.392 5.72322 42.5386 5.48452C42.6851 5.24583 42.7308 4.9587 42.6656 4.6863C42.6005 4.4139 42.4298 4.17855 42.1911 4.03202V4.02702Z" fill="#83B933"/>
<path d="M38.6511 2.18601C33.2482 -0.13393 27.2357 -0.626749 21.5272 0.782439C15.8186 2.19163 10.7262 5.42579 7.02357 9.99347C3.32096 14.5612 1.21064 20.2127 1.01327 26.0892C0.815898 31.9658 2.54227 37.7462 5.93005 42.552L3.98405 44.5C3.83636 44.6474 3.73575 44.8354 3.69496 45.04C3.65417 45.2446 3.67505 45.4568 3.75494 45.6496C3.83483 45.8423 3.97015 46.007 4.14374 46.1228C4.31733 46.2386 4.52138 46.3003 4.73005 46.3H9.96705C10.2469 46.3 10.5152 46.1889 10.713 45.991C10.9109 45.7932 11.0221 45.5248 11.0221 45.245V40.006C11.0219 39.7976 10.9599 39.5938 10.844 39.4206C10.7282 39.2473 10.5635 39.1122 10.371 39.0324C10.1784 38.9526 9.9665 38.9316 9.76202 38.9721C9.55754 39.0126 9.36965 39.1128 9.22205 39.26L7.44505 41.037C4.40714 36.5866 2.89524 31.2707 3.13644 25.8877C3.37764 20.5047 5.35892 15.3453 8.78268 11.1845C12.2064 7.02367 16.8878 4.08605 22.1236 2.81291C27.3595 1.53976 32.867 1.99983 37.819 4.12401C38.0739 4.22265 38.3571 4.21856 38.609 4.11259C38.8609 4.00663 39.0618 3.80706 39.1695 3.55591C39.2772 3.30475 39.2832 3.02161 39.1863 2.76609C39.0894 2.51057 38.8972 2.30262 38.6501 2.18601H38.6511ZM8.91305 42.552V44.189H7.27605L8.91305 42.552Z" fill="#83B933"/>
</svg>
