<svg width="54" height="54" viewBox="0 0 54 54" fill="none" xmlns="http://www.w3.org/2000/svg">
<path d="M18.752 21.824C18.8997 21.6765 19.0003 21.4885 19.0411 21.2838C19.0819 21.0791 19.0611 20.8669 18.9813 20.6741C18.9015 20.4812 18.7663 20.3164 18.5928 20.2004C18.4192 20.0844 18.2152 20.0225 18.0065 20.0225C17.7978 20.0225 17.5937 20.0844 17.4202 20.2004C17.2467 20.3164 17.1115 20.4812 17.0317 20.6741C16.9518 20.8669 16.931 21.0791 16.9719 21.2838C17.0127 21.4885 17.1133 21.6765 17.261 21.824C17.3589 21.9219 17.4751 21.9996 17.603 22.0526C17.7309 22.1056 17.868 22.1329 18.0065 22.1329C18.1449 22.1329 18.282 22.1056 18.41 22.0526C18.5379 21.9996 18.6541 21.9219 18.752 21.824Z" fill="#83B933"/>
<path d="M29.194 23.315C29.6364 22.8725 29.9377 22.3087 30.0597 21.695C30.1818 21.0812 30.1191 20.4451 29.8796 19.867C29.6401 19.2888 29.2345 18.7947 28.7142 18.4471C28.1939 18.0995 27.5822 17.9139 26.9565 17.9139C26.3307 17.9139 25.719 18.0995 25.1987 18.4471C24.6784 18.7947 24.2729 19.2888 24.0334 19.867C23.7939 20.4451 23.7312 21.0812 23.8532 21.695C23.9753 22.3087 24.2765 22.8725 24.719 23.315C25.3128 23.9077 26.1175 24.2407 26.9565 24.2407C27.7955 24.2407 28.6002 23.9077 29.194 23.315ZM26.21 20.332C26.3823 20.1599 26.609 20.0529 26.8514 20.0292C27.0938 20.0054 27.3369 20.0665 27.5393 20.2018C27.7418 20.3372 27.891 20.5386 27.9617 20.7717C28.0324 21.0047 28.02 21.2551 27.9268 21.4801C27.8336 21.7051 27.6653 21.8909 27.4505 22.0057C27.2358 22.1206 26.9878 22.1574 26.749 22.11C26.5101 22.0626 26.295 21.9338 26.1404 21.7456C25.9858 21.5575 25.9012 21.3215 25.901 21.078C25.901 20.9394 25.9283 20.8022 25.9813 20.6742C26.0343 20.5463 26.112 20.4299 26.21 20.332Z" fill="#83B933"/>
<path d="M24.719 30.772C24.2765 31.2145 23.9753 31.7783 23.8532 32.392C23.7312 33.0057 23.7939 33.6419 24.0334 34.22C24.2729 34.7981 24.6784 35.2922 25.1987 35.6399C25.719 35.9875 26.3307 36.173 26.9565 36.173C27.5822 36.173 28.1939 35.9875 28.7142 35.6399C29.2345 35.2922 29.6401 34.7981 29.8796 34.22C30.1191 33.6419 30.1818 33.0057 30.0597 32.392C29.9377 31.7783 29.6364 31.2145 29.194 30.772C28.9002 30.478 28.5514 30.2448 28.1675 30.0857C27.7836 29.9265 27.3721 29.8446 26.9565 29.8446C26.5409 29.8446 26.1294 29.9265 25.7455 30.0857C25.3615 30.2448 25.0127 30.478 24.719 30.772ZM27.7 33.756C27.5524 33.9035 27.3645 34.004 27.1598 34.0447C26.9552 34.0854 26.743 34.0645 26.5503 33.9847C26.3575 33.9048 26.1927 33.7696 26.0768 33.5961C25.9609 33.4226 25.899 33.2186 25.899 33.01C25.899 32.8013 25.9609 32.5973 26.0768 32.4239C26.1927 32.2504 26.3575 32.1151 26.5503 32.0353C26.743 31.9554 26.9552 31.9345 27.1598 31.9752C27.3645 32.016 27.5524 32.1164 27.7 32.264C27.8976 32.462 28.0086 32.7303 28.0086 33.01C28.0086 33.2897 27.8976 33.558 27.7 33.756Z" fill="#83B933"/>
<path d="M18.464 28.742C18.4911 28.8778 18.5447 29.007 18.6218 29.122C18.6988 29.2371 18.7978 29.3359 18.9131 29.4127C19.0283 29.4895 19.1576 29.5428 19.2935 29.5697C19.4294 29.5965 19.5692 29.5962 19.705 29.569L34.62 26.586C34.7592 26.5625 34.8924 26.5112 35.0115 26.4353C35.1305 26.3594 35.2332 26.2603 35.3133 26.144C35.3934 26.0277 35.4493 25.8964 35.4777 25.7581C35.5061 25.6198 35.5065 25.4771 35.4788 25.3386C35.451 25.2001 35.3958 25.0686 35.3163 24.9519C35.2368 24.8352 35.1347 24.7356 35.016 24.659C34.8973 24.5825 34.7644 24.5306 34.6253 24.5064C34.4862 24.4821 34.3436 24.4861 34.206 24.518L19.291 27.5C19.1552 27.5271 19.026 27.5807 18.9109 27.6578C18.7959 27.7349 18.6971 27.8338 18.6203 27.9491C18.5435 28.0643 18.4901 28.1936 18.4633 28.3295C18.4365 28.4654 18.4367 28.6052 18.464 28.741V28.742Z" fill="#83B933"/>
<path d="M32.063 5.96698C31.9244 5.96693 31.7872 5.99419 31.6592 6.04721C31.5312 6.10023 31.4149 6.17797 31.317 6.27598L20.245 17.348C20.0555 17.5474 19.9513 17.8129 19.9548 18.088C19.9582 18.3631 20.069 18.6259 20.2635 18.8205C20.4579 19.0151 20.7207 19.126 20.9958 19.1297C21.2708 19.1333 21.5364 19.0294 21.736 18.84L32.063 8.51298L45.487 21.937L21.809 45.614L8.38498 32.191L15.77 24.806C15.8721 24.709 15.9537 24.5925 16.01 24.4634C16.0664 24.3344 16.0963 24.1953 16.0981 24.0545C16.0999 23.9137 16.0734 23.7739 16.0203 23.6435C15.9672 23.513 15.8886 23.3946 15.7889 23.295C15.6893 23.1955 15.5708 23.1169 15.4403 23.0638C15.3098 23.0108 15.1701 22.9845 15.0292 22.9863C14.8884 22.9882 14.7494 23.0182 14.6204 23.0747C14.4913 23.1311 14.3749 23.2128 14.278 23.315L6.14798 31.446C6.05004 31.5439 5.97235 31.6601 5.91935 31.788C5.86634 31.9159 5.83906 32.053 5.83906 32.1915C5.83906 32.3299 5.86634 32.4671 5.91935 32.595C5.97235 32.7229 6.05004 32.8391 6.14798 32.937L21.063 47.852C21.1609 47.9499 21.2771 48.0276 21.405 48.0806C21.5329 48.1336 21.67 48.1609 21.8085 48.1609C21.9469 48.1609 22.084 48.1336 22.212 48.0806C22.3399 48.0276 22.4561 47.9499 22.554 47.852L47.724 22.683C47.8219 22.585 47.8997 22.4687 47.9527 22.3407C48.0057 22.2127 48.033 22.0755 48.033 21.937C48.033 21.7984 48.0057 21.6612 47.9527 21.5332C47.8997 21.4052 47.8219 21.2889 47.724 21.191L32.809 6.27498C32.711 6.17715 32.5946 6.0996 32.4666 6.04675C32.3386 5.9939 32.2015 5.96679 32.063 5.96698Z" fill="#83B933"/>
<path d="M52.2 0.308977L47.672 4.83598C46.3939 3.86507 44.8366 3.33263 43.2316 3.31785C41.6266 3.30308 40.0597 3.80676 38.764 4.75398L35.057 0.937977L35.046 0.926977C34.7523 0.63272 34.4034 0.39927 34.0194 0.239988C33.6354 0.0807055 33.2237 -0.00128174 32.808 -0.00128174C32.3922 -0.00128174 31.9806 0.0807055 31.5965 0.239988C31.2125 0.39927 30.8637 0.63272 30.57 0.926977L0.926977 30.7C0.632989 30.9937 0.399771 31.3425 0.240652 31.7264C0.0815336 32.1104 -0.000366211 32.5219 -0.000366211 32.9375C-0.000366211 33.3531 0.0815336 33.7646 0.240652 34.1485C0.399771 34.5324 0.632989 34.8812 0.926977 35.175L5.10998 39.358C4.65047 40.6867 4.574 42.1179 4.88931 43.488C5.20462 44.8581 5.89899 46.1119 6.89308 47.1061C7.88717 48.1003 9.14087 48.7948 10.511 49.1102C11.881 49.4257 13.3122 49.3493 14.641 48.89L18.824 53.073C19.4171 53.6661 20.2216 53.9993 21.0605 53.9993C21.8993 53.9993 22.7038 53.6661 23.297 53.073L53.073 23.428C53.3671 23.1344 53.6004 22.7857 53.7595 22.4018C53.9187 22.018 54.0006 21.6065 54.0006 21.191C54.0006 20.7754 53.9187 20.364 53.7595 19.9801C53.6004 19.5963 53.3671 19.2476 53.073 18.954L53.062 18.943L49.247 15.236C50.1965 13.9411 50.7015 12.3738 50.6866 10.7682C50.6716 9.16256 50.1375 7.6049 49.164 6.32798L53.691 1.79998C53.8769 1.59992 53.978 1.33554 53.9731 1.06245C53.9681 0.789367 53.8574 0.528857 53.6642 0.335724C53.4711 0.14259 53.2106 0.0318855 52.9375 0.0268972C52.6644 0.0219089 52.4 0.123025 52.2 0.308977ZM47.054 14.555C46.9554 14.6537 46.8774 14.7711 46.8246 14.9002C46.7717 15.0294 46.745 15.1677 46.746 15.3073C46.747 15.4468 46.7758 15.5848 46.8305 15.7131C46.8853 15.8415 46.965 15.9577 47.065 16.055L51.585 20.448C51.7812 20.6453 51.8913 20.9122 51.8913 21.1905C51.8913 21.4687 51.7812 21.7357 51.585 21.933L21.809 51.581C21.611 51.7786 21.3427 51.8896 21.063 51.8896C20.7833 51.8896 20.515 51.7786 20.317 51.581L15.639 46.9C15.4857 46.7467 15.289 46.6444 15.0755 46.607C14.862 46.5696 14.6422 46.5989 14.446 46.691C13.4467 47.1525 12.3299 47.2964 11.2463 47.1032C10.1626 46.9101 9.16433 46.3893 8.38601 45.6109C7.60769 44.8326 7.08684 43.8343 6.89371 42.7507C6.70058 41.6671 6.84447 40.5503 7.30598 39.551C7.39757 39.3554 7.42694 39.1364 7.3901 38.9236C7.35326 38.7108 7.25199 38.5144 7.09998 38.361L2.41898 33.683C2.221 33.4848 2.1098 33.2161 2.1098 32.936C2.1098 32.6558 2.221 32.3872 2.41898 32.189L32.064 2.41898C32.2615 2.22271 32.5286 2.11255 32.807 2.11255C33.0854 2.11255 33.3525 2.22271 33.55 2.41898L37.943 6.93898C38.0403 7.03899 38.1565 7.11869 38.2848 7.17344C38.4132 7.22819 38.5511 7.25691 38.6907 7.25794C38.8302 7.25896 38.9686 7.23227 39.0977 7.1794C39.2269 7.12654 39.3442 7.04855 39.443 6.94998C40.3196 6.08785 41.4683 5.55674 42.693 5.44731C43.9177 5.33789 45.1424 5.65693 46.158 6.34998L44.613 7.89498C43.9396 7.57437 43.1745 7.50213 42.453 7.69102C41.7314 7.87991 41.0999 8.31777 40.67 8.92723C40.24 9.53669 40.0394 10.2785 40.1035 11.0216C40.1675 11.7647 40.4922 12.4612 41.0201 12.9881C41.5481 13.5149 42.2452 13.8382 42.9884 13.9008C43.7317 13.9634 44.4731 13.7612 45.0817 13.3301C45.6903 12.8989 46.1268 12.2665 46.3143 11.5446C46.5017 10.8227 46.4279 10.0577 46.106 9.38498L47.653 7.83798C48.348 8.85309 48.6682 10.0784 48.5587 11.3037C48.4492 12.529 47.9169 13.6781 47.053 14.554L47.054 14.555ZM44 9.99998C44.1464 10.148 44.2457 10.336 44.2855 10.5403C44.3253 10.7446 44.3038 10.9562 44.2236 11.1483C44.1434 11.3404 44.0082 11.5045 43.8349 11.6199C43.6617 11.7354 43.4582 11.797 43.25 11.797C43.0418 11.797 42.8383 11.7354 42.665 11.6199C42.4918 11.5045 42.3566 11.3404 42.2764 11.1483C42.1962 10.9562 42.1746 10.7446 42.2144 10.5403C42.2542 10.336 42.3536 10.148 42.5 9.99998C42.5981 9.90081 42.7149 9.82208 42.8436 9.76835C42.9724 9.71462 43.1105 9.68695 43.25 9.68695C43.3895 9.68695 43.5276 9.71462 43.6563 9.76835C43.7851 9.82208 43.9019 9.90081 44 9.99998Z" fill="#83B933"/>
</svg>
