<svg width="156" height="88" viewBox="0 0 156 88" fill="none" xmlns="http://www.w3.org/2000/svg">
<path d="M65.6908 34.188C65.6908 34.188 58.666 15.3922 51.0137 8.5416C51.0137 8.5416 62.7849 11.1436 66.287 29.7278C66.287 29.7278 73.2905 -2.38601 37.2308 0.141764C45.8249 8.05735 39.5192 36.9576 65.6908 34.188Z" fill="#83B933"/>
<path d="M67.2711 29.4362C69.8122 21.8445 74.968 18.4905 77.3621 17.7535C71.1381 23.0977 67.4182 34.3743 67.4182 34.3743C90.5456 29.5834 80.6767 8.72543 80.6762 8.72443C75.654 15.884 67.1795 11.3379 67.2711 29.4362Z" fill="#83B933"/>
<path opacity="0.16" fill-rule="evenodd" clip-rule="evenodd" d="M81.1147 25.6498C79.2223 29.4192 75.1808 32.7976 67.4009 34.3743C67.4009 34.3743 67.9669 32.6294 69.0118 30.2738C74.4796 29.302 80.9921 25.7186 81.1147 25.6498Z" fill="white"/>
<path opacity="0.16" fill-rule="evenodd" clip-rule="evenodd" d="M48.2017 27.831C51.4745 32.3747 56.6573 35.1411 65.6923 34.1538C65.6923 34.1538 65.0946 32.5869 64.0409 30.0329C64.0338 30.0345 56.0086 31.4195 48.2017 27.831Z" fill="white"/>
<path opacity="0.16" fill-rule="evenodd" clip-rule="evenodd" d="M66.2858 29.8376C66.2858 29.8376 67.1693 25.7633 66.695 20.62C62.3378 15.6635 57.9537 12.7377 57.9537 12.7377V12.7382C61.1752 15.8315 64.6397 21.0705 66.2858 29.8376Z" fill="white"/>
<path d="M16.4404 65.8462C13.1046 65.8462 10.1978 65.1299 7.71982 63.6973C5.24185 62.2648 3.33572 60.2751 2.00143 57.7283C0.667145 55.1816 0 52.2687 0 48.9897C0 45.1696 0.65126 41.9383 1.95378 39.2961C3.28807 36.6538 5.13066 34.6641 7.48155 33.3271C9.83244 31.99 12.5487 31.3215 15.6303 31.3215C17.6317 31.3215 19.5537 31.6717 21.3963 32.372C21.8728 32.1492 22.5558 31.9263 23.4454 31.7035C24.3667 31.4806 25.0815 31.3533 25.5898 31.3215C26.5111 33.6772 26.9717 37.2746 26.9717 42.1134H22.3493C22.0317 40.076 21.2374 38.5002 19.9667 37.386C18.7277 36.2718 17.2346 35.7147 15.4873 35.7147C13.3906 35.7147 11.7386 36.6219 10.5314 38.4365C9.35591 40.2193 8.76819 43.3231 8.76819 47.7482C8.76819 52.6507 9.35591 56.1207 10.5314 58.1581C11.7068 60.1955 13.5017 61.2142 15.9162 61.2142C16.8057 61.2142 17.5523 61.1187 18.1559 60.9277C18.7595 60.7367 19.2678 60.4184 19.6808 59.9727V54.5289C19.6808 53.7012 19.3154 53.1123 18.5848 52.7621C17.8858 52.3801 16.7739 52.1891 15.249 52.1891C15.249 51.6161 15.3602 50.9475 15.5826 50.1835C15.805 49.4195 16.075 48.8624 16.3927 48.5122H26.6858C27.9248 48.5122 28.7825 48.8783 29.2591 49.6105C29.7356 50.3427 29.9739 51.0431 29.9739 51.7116C29.9739 52.0299 29.8944 52.3164 29.7356 52.5711C28.5919 52.5711 27.7024 52.6985 27.067 52.9531V58.4446C27.067 59.4633 27.2417 60.1796 27.5912 60.5934C27.8136 60.8163 27.9248 61.1028 27.9248 61.453C27.9248 62.026 27.4006 62.6627 26.3522 63.3631C25.3038 64.0634 23.8901 64.6524 22.1111 65.1299C20.3638 65.6074 18.4736 65.8462 16.4404 65.8462Z" fill="white"/>
<path d="M31.5017 58.4446C31.5017 56.3117 32.2007 54.6245 33.5985 53.3829C34.9963 52.1413 37.0613 51.5206 39.7934 51.5206C40.7465 51.5206 41.7154 51.6161 42.7002 51.8071C43.7168 51.9981 44.5428 52.2528 45.1782 52.5711V46.2201C45.1782 44.9467 44.8605 44.0394 44.2252 43.4982C43.5898 42.9252 42.732 42.6387 41.6519 42.6387C40.6035 42.6387 39.7457 42.8934 39.0786 43.4027C39.6822 43.5937 40.127 43.928 40.4129 44.4055C40.7306 44.8512 40.8894 45.3606 40.8894 45.9336C40.8894 46.9523 40.5241 47.78 39.7934 48.4167C39.0627 49.0534 38.1414 49.3717 37.0295 49.3717C35.8223 49.3717 34.8534 49.0215 34.1227 48.3212C33.392 47.6208 33.0266 46.7135 33.0266 45.5993C33.0266 44.4851 33.4079 43.4346 34.1703 42.4477C34.9328 41.4608 36.0923 40.6649 37.649 40.0601C39.2374 39.4552 41.1912 39.1528 43.5104 39.1528C46.6555 39.1528 49.0381 39.8054 50.6583 41.1106C52.2785 42.384 53.0886 44.2623 53.0886 46.7454V59.3997C53.0886 60.9277 53.8193 61.8509 55.2807 62.1693V63.6973C54.8677 64.2704 54.1847 64.716 53.2316 65.0344C52.2785 65.3527 51.3096 65.5119 50.3248 65.5119C48.1645 65.5119 46.6396 64.7638 45.75 63.2676C45.0194 63.9043 44.1298 64.4454 43.0815 64.8911C42.0331 65.305 40.8418 65.5119 39.5075 65.5119C37.1248 65.5119 35.1869 64.8593 33.6938 63.5541C32.2324 62.217 31.5017 60.5139 31.5017 58.4446ZM45.1782 56.248C44.8288 56.0252 44.3999 55.8342 43.8916 55.675C43.415 55.5158 42.9544 55.4362 42.5096 55.4362C41.6201 55.4362 40.8894 55.7227 40.3176 56.2958C39.7458 56.837 39.4598 57.6328 39.4598 58.6834C39.4598 59.5429 39.7458 60.2592 40.3176 60.8322C40.8894 61.3734 41.6519 61.644 42.6049 61.644C43.0815 61.644 43.5421 61.5803 43.9869 61.453C44.4634 61.2938 44.8605 61.1028 45.1782 60.88V56.248Z" fill="white"/>
<path d="M73.5847 39.2483C75.0143 39.2483 76.0627 39.6144 76.7299 40.3466C77.397 41.0788 77.7306 42.0816 77.7306 43.355C77.7306 44.7239 77.3652 45.8381 76.6345 46.6976C75.9356 47.5572 74.9826 47.9869 73.7754 47.9869C72.727 47.9869 71.8692 47.6845 71.2021 47.0796C70.5667 46.4748 70.249 45.7585 70.249 44.9308C70.249 44.4214 70.2967 44.0235 70.392 43.737C69.2483 44.0235 68.2794 44.5169 67.4851 45.2173V59.5429C67.4851 60.3388 67.5963 60.9436 67.8187 61.3575C68.0411 61.7713 68.47 62.0897 69.1053 62.3125C69.7725 62.5035 70.7573 62.599 72.0598 62.599C72.0598 63.1721 71.9963 63.6655 71.8692 64.0793C71.7421 64.4614 71.5039 64.8275 71.1544 65.1776H58.431C57.7003 64.4454 57.335 63.5859 57.335 62.599C58.2563 62.599 58.9076 62.408 59.2888 62.026C59.7018 61.6122 59.9083 60.9277 59.9083 59.9727V46.1723C59.9083 45.3128 59.67 44.708 59.1935 44.3578C58.7487 44.0076 57.9386 43.8325 56.7632 43.8325V41.6837C57.8115 41.0788 59.1935 40.5535 60.909 40.1078C62.6563 39.6303 64.0064 39.3916 64.9595 39.3916C65.722 39.3916 66.262 39.6622 66.5797 40.2033C66.8974 40.7445 67.0563 41.8269 67.0563 43.4505C67.6281 42.3681 68.5335 41.3971 69.7725 40.5376C71.0115 39.6781 72.2822 39.2483 73.5847 39.2483Z" fill="white"/>
<path d="M103.997 63.9838C103.552 64.5569 102.885 65.0026 101.995 65.3209C101.106 65.6392 100.153 65.7984 99.1362 65.7984C98.2149 65.7984 97.3094 65.5915 96.4199 65.1776C95.5304 64.7956 94.9109 64.2544 94.5615 63.5541C93.9261 64.3818 93.1319 64.9548 92.1788 65.2731C91.2575 65.6233 90.0979 65.7984 88.7001 65.7984C86.9211 65.7984 85.285 65.3527 83.7918 64.4614C82.2987 63.5382 81.0915 62.1852 80.1702 60.4024C79.2807 58.5879 78.8359 56.3754 78.8359 53.7649C78.8359 50.677 79.4077 48.0506 80.5514 45.8858C81.7269 43.7211 83.2676 42.0975 85.1738 41.0151C87.0799 39.9328 89.1766 39.3916 91.464 39.3916C92.0041 39.3916 92.973 39.4552 94.3708 39.5826L94.2279 36.7175V34.3298C94.2279 33.534 94.0055 32.945 93.5607 32.563C93.116 32.181 92.2741 31.99 91.0351 31.99V30.0322C92.147 29.4273 93.5925 28.8861 95.3716 28.4086C97.1506 27.9311 98.5484 27.6923 99.565 27.6923C100.296 27.6923 100.82 27.8674 101.138 28.2176C101.487 28.5359 101.662 29.093 101.662 29.8889V59.8772C101.662 61.4371 102.424 62.3603 103.949 62.6468L103.997 63.9838ZM91.9882 61.7395C92.973 61.7395 93.7196 61.453 94.2279 60.88V44.1668C93.5607 43.2436 92.6712 42.782 91.5593 42.782C90.1615 42.782 89.0337 43.5142 88.1759 44.9785C87.3499 46.4429 86.9369 48.8146 86.9369 52.0936C86.9369 55.2452 87.3976 57.6487 88.3189 59.3041C89.2719 60.9277 90.495 61.7395 91.9882 61.7395Z" fill="white"/>
<path d="M118.811 60.3069C120.812 60.3069 122.671 59.6702 124.386 58.3969C124.641 58.6515 124.863 59.0336 125.054 59.5429C125.244 60.0523 125.339 60.4979 125.339 60.88C125.339 61.453 124.958 62.1215 124.196 62.8856C123.433 63.6177 122.369 64.2544 121.003 64.7956C119.669 65.3368 118.16 65.6074 116.476 65.6074C114.125 65.6074 112.06 65.0981 110.281 64.0793C108.534 63.0606 107.184 61.5803 106.231 59.6384C105.277 57.6965 104.801 55.4044 104.801 52.7621C104.801 50.0562 105.309 47.6845 106.326 45.6471C107.374 43.6097 108.804 42.0498 110.615 40.9674C112.425 39.8532 114.475 39.2961 116.762 39.2961C119.653 39.2961 121.956 40.1397 123.672 41.8269C125.387 43.5142 126.245 45.854 126.245 48.8465C126.245 50.2472 126.022 51.3614 125.578 52.1891C125.133 52.985 124.339 53.3829 123.195 53.3829H112.902C113.093 57.9989 115.062 60.3069 118.811 60.3069ZM116.476 42.5909C115.491 42.5909 114.665 43.1481 113.998 44.2623C113.331 45.3446 112.966 47.1751 112.902 49.7537H117.715C118.223 49.7537 118.557 49.5787 118.716 49.2285C118.875 48.8783 118.954 48.3371 118.954 47.6049C118.954 45.7267 118.732 44.4214 118.287 43.6892C117.842 42.957 117.238 42.5909 116.476 42.5909Z" fill="white"/>
<path d="M155.692 63.8883C155.216 64.3659 154.358 64.7479 153.119 65.0344C151.912 65.3209 150.752 65.4642 149.64 65.4642C148.274 65.4642 147.258 65.2095 146.591 64.7001C145.955 64.1908 145.637 63.379 145.637 62.2648V47.3661C145.637 46.1246 145.367 45.2332 144.827 44.692C144.287 44.1508 143.573 43.8803 142.683 43.8803C141.38 43.8803 140.284 44.4055 139.395 45.4561V60.0204C139.395 60.9436 139.586 61.6122 139.967 62.026C140.38 62.4399 141.063 62.6468 142.016 62.6468C142.016 63.6018 141.65 64.4454 140.92 65.1776H130.103C129.34 64.4136 128.959 63.57 128.959 62.6468C129.912 62.6468 130.595 62.4399 131.008 62.026C131.421 61.6122 131.627 60.9436 131.627 60.0204V46.0768C131.627 45.2173 131.389 44.6124 130.913 44.2623C130.436 43.8803 129.61 43.6892 128.435 43.6892V41.5404C129.451 40.9674 130.881 40.4421 132.723 39.9646C134.598 39.4871 136.012 39.2483 136.965 39.2483C137.695 39.2483 138.251 39.4871 138.632 39.9646C139.045 40.4103 139.284 41.2698 139.347 42.5432C140.173 41.5245 141.206 40.7286 142.445 40.1556C143.684 39.5507 145.082 39.2483 146.638 39.2483C148.926 39.2483 150.609 39.8372 151.689 41.0151C152.801 42.1612 153.357 44.0553 153.357 46.6976V59.7339C153.357 61.2938 154.12 62.217 155.645 62.5035L155.692 63.8883Z" fill="white"/>
<path d="M22.1153 75.0769C23.9848 75.0769 25.5493 75.6691 26.8087 76.8534C28.0681 78.0377 28.6978 79.4955 28.6978 81.2268C28.6978 82.9421 28.0681 84.3973 26.8087 85.5922C25.5549 86.7871 24.024 87.3846 22.216 87.3846C20.3857 87.3846 18.8408 86.7898 17.5814 85.6002C16.322 84.4106 15.6923 82.9714 15.6923 81.2825C15.6923 80.1566 15.9778 79.1131 16.5487 78.1518C17.1252 77.1906 17.9089 76.4391 18.8996 75.8974C19.8903 75.3504 20.9622 75.0769 22.1153 75.0769ZM22.1741 76.224C21.2617 76.224 20.3969 76.4497 19.5797 76.9012C18.7625 77.3526 18.1244 77.9606 17.6654 78.7254C17.2064 79.4901 16.9769 80.3425 16.9769 81.2825C16.9769 82.674 17.4835 83.8503 18.4966 84.8115C19.5153 85.7675 20.7411 86.2454 22.1741 86.2454C23.1312 86.2454 24.0156 86.025 24.8272 85.5842C25.6444 85.1435 26.2797 84.5407 26.7331 83.7759C27.1921 83.0112 27.4216 82.1615 27.4216 81.2268C27.4216 80.2974 27.1921 79.4583 26.7331 78.7095C26.2797 77.9553 25.6388 77.3526 24.8104 76.9012C23.982 76.4497 23.1032 76.224 22.1741 76.224Z" fill="#F3F6F4"/>
<path d="M36.6854 87.0899V75.3717H36.9541L45.1654 84.3415V75.3717H46.3829V87.0899H46.1058L37.9616 78.2315V87.0899H36.6854Z" fill="#F3F6F4"/>
<path d="M54.9163 75.3717H61.9941V76.5267H56.1505V80.1912H61.9437V81.3383H56.1505V85.9348H61.9437V87.0899H54.9163V75.3717Z" fill="#F3F6F4"/>
<path d="M68.3529 84.9071L69.4025 84.3097C70.1413 85.6002 70.9949 86.2454 71.9632 86.2454C72.3774 86.2454 72.7665 86.1552 73.1303 85.9746C73.4941 85.7887 73.7712 85.5418 73.9615 85.2337C74.1518 84.9257 74.247 84.5991 74.247 84.2539C74.247 83.8609 74.107 83.4759 73.8272 83.0988C73.4409 82.5784 72.7357 81.9517 71.7114 81.2188C70.6814 80.4806 70.0405 79.9469 69.7887 79.6176C69.3521 79.0653 69.1338 78.4678 69.1338 77.8252C69.1338 77.3154 69.2625 76.8507 69.52 76.4311C69.7775 76.0116 70.1385 75.6823 70.6031 75.4433C71.0733 75.1991 71.5826 75.0769 72.1312 75.0769C72.7133 75.0769 73.2562 75.215 73.76 75.4911C74.2694 75.762 74.8067 76.2639 75.372 76.9967L74.3645 77.7217C73.8999 77.1375 73.5025 76.7524 73.1723 76.5666C72.8476 76.3807 72.4922 76.2878 72.106 76.2878C71.6078 76.2878 71.1992 76.4311 70.8801 76.7179C70.5667 77.0047 70.41 77.3579 70.41 77.7774C70.41 78.0323 70.4659 78.2793 70.5779 78.5183C70.6898 78.7573 70.8941 79.0175 71.1908 79.299C71.3531 79.4477 71.8849 79.838 72.7861 80.47C73.8551 81.2188 74.5884 81.8853 74.9858 82.4695C75.3832 83.0537 75.5819 83.6405 75.5819 84.23C75.5819 85.0797 75.2405 85.8179 74.5576 86.4446C73.8803 87.0713 73.0547 87.3846 72.0808 87.3846C71.3307 87.3846 70.6507 87.1961 70.0405 86.819C69.4304 86.4366 68.8679 85.7993 68.3529 84.9071Z" fill="#F3F6F4"/>
<path d="M82.4697 76.5108V75.3717H89.2453V76.5108H86.4914V87.0899H85.232V76.5108H82.4697Z" fill="#F3F6F4"/>
<path d="M102.405 75.0769C104.274 75.0769 105.839 75.6691 107.098 76.8534C108.358 78.0377 108.987 79.4955 108.987 81.2268C108.987 82.9421 108.358 84.3973 107.098 85.5922C105.845 86.7871 104.314 87.3846 102.506 87.3846C100.675 87.3846 99.1305 86.7898 97.8711 85.6002C96.6117 84.4106 95.982 82.9714 95.982 81.2825C95.982 80.1566 96.2674 79.1131 96.8384 78.1518C97.4149 77.1906 98.1985 76.4391 99.1892 75.8974C100.18 75.3504 101.252 75.0769 102.405 75.0769ZM102.464 76.224C101.551 76.224 100.687 76.4497 99.8693 76.9012C99.0521 77.3526 98.414 77.9606 97.955 78.7254C97.496 79.4901 97.2666 80.3425 97.2666 81.2825C97.2666 82.674 97.7731 83.8503 98.7862 84.8115C99.805 85.7675 101.031 86.2454 102.464 86.2454C103.421 86.2454 104.305 86.025 105.117 85.5842C105.934 85.1435 106.569 84.5407 107.023 83.7759C107.482 83.0112 107.711 82.1615 107.711 81.2268C107.711 80.2974 107.482 79.4583 107.023 78.7095C106.569 77.9553 105.928 77.3526 105.1 76.9012C104.272 76.4497 103.393 76.224 102.464 76.224Z" fill="#F3F6F4"/>
<path d="M117.034 75.3717H119.494C120.865 75.3717 121.794 75.4248 122.281 75.531C123.015 75.6903 123.611 76.0328 124.07 76.5586C124.529 77.0791 124.758 77.7217 124.758 78.4864C124.758 79.1237 124.599 79.684 124.28 80.1673C123.966 80.6505 123.516 81.017 122.928 81.2666C122.34 81.5109 121.529 81.6357 120.493 81.641L124.935 87.0899H123.406L118.973 81.641H118.268V87.0899H117.034V75.3717ZM118.268 76.5188V80.5018L120.392 80.5178C121.215 80.5178 121.822 80.4434 122.214 80.2947C122.612 80.146 122.919 79.9097 123.138 79.5857C123.362 79.2565 123.474 78.89 123.474 78.4864C123.474 78.0934 123.362 77.7376 123.138 77.419C122.914 77.095 122.62 76.864 122.256 76.7259C121.892 76.5878 121.288 76.5188 120.443 76.5188H118.268Z" fill="#F3F6F4"/>
<path d="M132.922 75.3717H140V76.5267H134.156V80.1912H139.95V81.3383H134.156V85.9348H139.95V87.0899H132.922V75.3717Z" fill="#F3F6F4"/>
</svg>
