<svg xmlns="http://www.w3.org/2000/svg" xmlns:xlink="http://www.w3.org/1999/xlink" width="200" height="120" viewBox="0 0 160.001 96">
  <defs>
    <linearGradient id="linear-gradient" x1="0.5" x2="0.5" y2="1" gradientUnits="objectBoundingBox">
      <stop offset="0" stop-color="#d4b257"/>
      <stop offset="1" stop-color="#a5841c"/>
    </linearGradient>
  </defs>
  <g id="OneStore_Barber" data-name="OneStore Barber" transform="translate(-707.636 -2070.266)">
    <path id="Caminho_50212" data-name="Caminho 50212" d="M1165.721,2623.848c-2.951.738-3.372,6.746,2,5.693,5.164-1.057,5.586-4.32,11.908-2.214,6.217-2.105,6.638,1.158,11.8,2.214,5.375,1.053,4.954-4.955,2-5.693a3.4,3.4,0,0,1,2.952,1.478c1.79,2.632.105,5.373-2,6.741-4.11,2.741-10.643,2.425-14.753-.737-4.215,3.162-10.748,3.478-14.858.737-2.109-1.368-3.794-4.11-2-6.741a3.4,3.4,0,0,1,2.951-1.478Zm24.237,11.592a19.7,19.7,0,0,1-10.327-.632,20.178,20.178,0,0,1-10.432.632c1.9,4.636,8.008,4,10.432,7.9,2.318-3.9,8.537-3.268,10.327-7.9Z" transform="translate(-391.402 -477.077)" fill="#e4e4e4" fill-rule="evenodd"/>
    <path id="Caminho_50213" data-name="Caminho 50213" d="M1023.92,2111.258c-2.844-8.851-6.849-15.912-15.807-21.075,3.689-1.9,7.377-1.372,11.171,1.79a8.756,8.756,0,0,1,9.274-3.053c-3.9,3.688-3.372,7.268-1.686,9.062,4,4.11,5.48-1.053,10.221-3.478a3.684,3.684,0,0,1,1.476-.632l.421.421c1.475,2,3.16,4.426,4.636,6.324-1.159,2-2.318,4.11-3.476,6.11-.844,1.478-1.686,2.952-2.425,4.531Zm18.969-18.018v-3.9c0-5.167-5.269-8.22-10.327-6.324,1.158-2.741,5.478-4.636,9.167-4a12.556,12.556,0,0,1,5.27-8.746,12.8,12.8,0,0,1,5.165,8.746c3.688-.632,8.009,1.263,9.167,4-5.057-1.9-10.327,1.158-10.327,6.324v3.9a5.465,5.465,0,0,1-1.16,1.053,15.957,15.957,0,0,1-2.949,2,.1.1,0,0,0-.105-.105,22.17,22.17,0,0,1-3.055-2.105l-.844-.843Zm12.435.632a3.691,3.691,0,0,1,1.476.632c4.741,2.425,6.217,7.588,10.221,3.478,1.687-1.793,2.213-5.373-1.686-9.062a8.756,8.756,0,0,1,9.274,3.053c3.794-3.162,7.483-3.688,11.171-1.79-8.853,5.162-12.962,12.224-15.807,21.075h-13.8a20.708,20.708,0,0,0-1.37-2.632c-1.371-2.53-2.95-5.587-4.531-8.008l4.636-6.324.421-.421Zm-3.792,17.386h-9.169l4.636-6.215Z" transform="translate(-258.77)" fill-rule="evenodd" fill="url(#linear-gradient)"/>
    <path id="Caminho_50214" data-name="Caminho 50214" d="M1216.961,2212.934c-3.371-4.531-6.638-9.065-10.011-13.6l1.687-2.422a153.3,153.3,0,0,1,8.535,15.912c.212.527.317.632-.211.105Zm-21.18,0c5.9-8.009,11.7-15.912,17.6-23.815a2.9,2.9,0,0,1,2.952-1.583,3.69,3.69,0,0,0,2.635-1.79c1.053-1.474.842-3.478-.423-4.215-1.37-.842-3.16-.211-4.214,1.263a4.55,4.55,0,0,0-.632,2.741c.211.948.211,1.263-.634,2.316a20.984,20.984,0,0,1-6.638,5.377,155.519,155.519,0,0,0-10.853,19.6c-.21.527-.21.632.211.105Zm10.642-16.228a.682.682,0,0,0,.634-.635.706.706,0,0,0-.634-.737.72.72,0,0,0-.737.737.7.7,0,0,0,.737.635Zm8.853-10.329a2.583,2.583,0,1,0-.316-3.162,2.155,2.155,0,0,0,.316,3.162ZM1204,2195.334l-4.636-6.215c-1.054-1.478-1.688-1.583-2.846-1.583a3.674,3.674,0,0,1-2.739-1.79c-1.055-1.474-.844-3.478.421-4.215,1.371-.842,3.16-.211,4.215,1.263a4.539,4.539,0,0,1,.632,2.741c-.211.948-.211,1.263.633,2.316a22.692,22.692,0,0,0,5.9,4.956q-.792,1.263-1.581,2.527Zm-6.535-8.957a2.249,2.249,0,0,1-3.055-.948,2.294,2.294,0,0,1,.316-3.268,2.4,2.4,0,0,1,3.057,1.053,2.156,2.156,0,0,1-.318,3.162Z" transform="translate(-418.194 -95.563)" fill="#e4e4e4" fill-rule="evenodd"/>
    <path id="Caminho_50216" data-name="Caminho 50216" d="M1495.624,2631.3a.387.387,0,0,1-.528.21c-.211-.105-.316-.421-.211-.526a2.238,2.238,0,0,0,.421-1.162.646.646,0,0,0-.105-.632,1.7,1.7,0,0,0-.737-.421,3.95,3.95,0,0,0-1.581,0,12.244,12.244,0,0,0-5.163,2.32c-.528.316-1.16.737-1.791,1.053h-.105a9.784,9.784,0,0,1-5.27,1.263,8.587,8.587,0,0,1-4.848-1.79h0c-.105.105-.105.211-.21.211a9.931,9.931,0,0,1-5.794,4h0a9.676,9.676,0,0,1-4.217.21h0a6.291,6.291,0,0,1-3.371-1.9,5.574,5.574,0,0,1-1.054-3.369,4.133,4.133,0,0,1,.633-2.214,4.376,4.376,0,0,1,1.58-1.793,4.148,4.148,0,0,1,2.212-.632,3.462,3.462,0,0,1,1.792.421,3.522,3.522,0,0,1,1.476,1.583,3.088,3.088,0,0,1,.421,1.684,2.993,2.993,0,0,1-.421,1.583,4.025,4.025,0,0,1-1.16,1.158,2.426,2.426,0,0,1-2.108-.105,4.587,4.587,0,0,1-.737-.632,3.713,3.713,0,0,1-.421-.951,2.222,2.222,0,0,1,.842-1.789.481.481,0,0,1,.528,0,.67.67,0,0,1,0,.631,1.052,1.052,0,0,0-.528,1.057.806.806,0,0,0,.21.526,1.057,1.057,0,0,0,.529.421,1.1,1.1,0,0,0,1.263.105,2.509,2.509,0,0,0,.95-.842,3.83,3.83,0,0,0,.211-1.162,2.007,2.007,0,0,0-.211-1.368,4.08,4.08,0,0,0-1.16-1.158,3.906,3.906,0,0,0-1.476-.422,2.867,2.867,0,0,0-1.791.632,3.719,3.719,0,0,0-1.369,1.474,3.552,3.552,0,0,0-.526,1.793,4.315,4.315,0,0,0,3.794,4.426h0a8.181,8.181,0,0,0,3.9-.105h0a9.819,9.819,0,0,0,5.373-3.689c.105-.105.105-.211.211-.316a3.742,3.742,0,0,1-1.474-2.741,1.9,1.9,0,0,1,1.579-1.685,1.508,1.508,0,0,1,1.9,1.053,5.371,5.371,0,0,1-.948,3.267h0a8.26,8.26,0,0,0,4.425,1.685,9.579,9.579,0,0,0,4.954-1.158h0c.632-.421,1.263-.737,1.79-1.162a12.613,12.613,0,0,1,5.375-2.316,6.336,6.336,0,0,1,2,0,1.8,1.8,0,0,1,1.055.631,1.679,1.679,0,0,1,.421,1.263,4.523,4.523,0,0,1-.526,1.372Zm-21.182-2.951c-.105.526.211,1.263,1.053,2.105a3.683,3.683,0,0,0,.738-2.527.693.693,0,0,0-.844-.526,1.117,1.117,0,0,0-.948.948Z" transform="translate(-649.119 -479.05)" fill="#e4e4e4" fill-rule="evenodd"/>
    <path id="Caminho_50217" data-name="Caminho 50217" d="M863.763,2631.3c.105.21.421.316.526.21.211-.105.316-.421.211-.526a2.237,2.237,0,0,1-.421-1.162c0-.21,0-.526.105-.632a1.7,1.7,0,0,1,.737-.421,3.952,3.952,0,0,1,1.581,0,12.257,12.257,0,0,1,5.164,2.32,15.357,15.357,0,0,0,1.9,1.053h0a9.782,9.782,0,0,0,5.269,1.263,8.588,8.588,0,0,0,4.849-1.79h0c.105.105.105.211.21.211a9.935,9.935,0,0,0,5.794,4h0a9.674,9.674,0,0,0,4.217.21h0a6.283,6.283,0,0,0,3.371-1.9,5.571,5.571,0,0,0,1.055-3.369,4.145,4.145,0,0,0-.632-2.214,4.4,4.4,0,0,0-1.581-1.793,4.149,4.149,0,0,0-2.213-.632,3.462,3.462,0,0,0-1.792.421,3.537,3.537,0,0,0-1.476,1.583,3.088,3.088,0,0,0-.421,1.684,4.452,4.452,0,0,0,.421,1.583,4.506,4.506,0,0,0,1.265,1.158,2.224,2.224,0,0,0,2-.105,2.284,2.284,0,0,0,.737-.632,3.711,3.711,0,0,0,.421-.951,2.223,2.223,0,0,0-.842-1.789.48.48,0,0,0-.528,0,.494.494,0,0,0,.107.631,1.163,1.163,0,0,1,.421,1.057.8.8,0,0,1-.211.526c-.105.21-.317.316-.423.421a1.3,1.3,0,0,1-1.369.105,2.155,2.155,0,0,1-.842-.842,2.132,2.132,0,0,1-.317-1.162,5.266,5.266,0,0,1,.212-1.368,4.044,4.044,0,0,1,1.158-1.158,3.908,3.908,0,0,1,1.476-.422,2.87,2.87,0,0,1,1.792.632,3.718,3.718,0,0,1,1.368,1.474,3.552,3.552,0,0,1,.526,1.793,4.315,4.315,0,0,1-3.792,4.426h0a8.2,8.2,0,0,1-3.9-.105h0a9.821,9.821,0,0,1-5.375-3.689c-.105-.105-.105-.211-.211-.316a3.743,3.743,0,0,0,1.474-2.741,1.9,1.9,0,0,0-1.579-1.685,1.369,1.369,0,0,0-1.792,1.053c-.211.737,0,1.79.842,3.267h0a8.261,8.261,0,0,1-4.426,1.685,9.577,9.577,0,0,1-4.954-1.158h0c-.632-.421-1.263-.737-1.79-1.162a12.612,12.612,0,0,0-5.375-2.316,6.335,6.335,0,0,0-2,0,1.8,1.8,0,0,0-1.054.631,1.677,1.677,0,0,0-.422,1.263,4.482,4.482,0,0,0,.529,1.372Zm21.18-2.951c.105.526-.21,1.263-1.053,2.105a3.681,3.681,0,0,1-.739-2.527.755.755,0,0,1,.95-.526,1.013,1.013,0,0,1,.842.948Z" transform="translate(-133.913 -479.05)" fill="#e4e4e4" fill-rule="evenodd"/>
    <path id="OneStore_Barber-2" data-name="OneStore Barber" d="M-694.932-57.064a8.342,8.342,0,0,0-.071-1.18,1.829,1.829,0,0,0-.285-.793,1.223,1.223,0,0,0-.62-.448,3.344,3.344,0,0,0-1.078-.142,3.424,3.424,0,0,0-1.1.142,1.223,1.223,0,0,0-.62.448,1.743,1.743,0,0,0-.275.793,9.7,9.7,0,0,0-.061,1.18v4.089a9.7,9.7,0,0,0,.061,1.18,1.743,1.743,0,0,0,.275.793,1.223,1.223,0,0,0,.62.448,3.424,3.424,0,0,0,1.1.142,3.67,3.67,0,0,0,1.1-.132,1.17,1.17,0,0,0,.62-.437,1.744,1.744,0,0,0,.275-.793,9.919,9.919,0,0,0,.061-1.2Zm2.075-3.824a3.868,3.868,0,0,1,.692,1.505,10,10,0,0,1,.224,2.319v4.089a10,10,0,0,1-.224,2.319,3.868,3.868,0,0,1-.692,1.505,3.006,3.006,0,0,1-1.221.875,6.768,6.768,0,0,1-1.933.407,3.181,3.181,0,0,1-.417.02h-1.129a2.808,2.808,0,0,1-.407-.02,6.769,6.769,0,0,1-1.933-.407,3.006,3.006,0,0,1-1.221-.875,3.868,3.868,0,0,1-.692-1.505,10,10,0,0,1-.224-2.319v-4.089a10,10,0,0,1,.224-2.319,3.868,3.868,0,0,1,.692-1.505,3.006,3.006,0,0,1,1.221-.875,6.769,6.769,0,0,1,1.933-.407,2.808,2.808,0,0,1,.407-.02h1.129a3.18,3.18,0,0,1,.417.02,6.768,6.768,0,0,1,1.933.407A3.006,3.006,0,0,1-692.857-60.889Zm13.569-.854a1.991,1.991,0,0,0-.407.305,1.1,1.1,0,0,0-.254.427,3.031,3.031,0,0,0-.132.681q-.041.417-.041,1.088V-49.5a1.74,1.74,0,0,0,.254.743,1.506,1.506,0,0,0,.519.417.165.165,0,0,1,.081.2.16.16,0,0,1-.163.122l-.793.02a.041.041,0,0,0-.031.01.041.041,0,0,1-.031.01h-2.238a.389.389,0,0,1-.122-.031.178.178,0,0,1-.1-.071l-4.089-7.384v5.452a3.826,3.826,0,0,0,.051.681,1.91,1.91,0,0,0,.142.468.877.877,0,0,0,.244.315,2,2,0,0,0,.356.224.184.184,0,0,1,.1.163.162.162,0,0,1-.183.183h-4.435a.176.176,0,0,1-.183-.142.182.182,0,0,1,.081-.183,1.987,1.987,0,0,0,.407-.305,1.1,1.1,0,0,0,.254-.427,3.031,3.031,0,0,0,.132-.681q.041-.417.041-1.088v-9.093a2.853,2.853,0,0,0-.193-1.251,1.559,1.559,0,0,0-.62-.6.137.137,0,0,1-.081-.183.165.165,0,0,1,.163-.142h3.519a.184.184,0,0,1,.163.1l3.763,7.608v-5.676a2.356,2.356,0,0,0-.2-1.149,1.619,1.619,0,0,0-.59-.559.131.131,0,0,1-.1-.183.176.176,0,0,1,.183-.142h4.435a.176.176,0,0,1,.183.142A.182.182,0,0,1-679.289-61.743Zm9.846,10.009a.144.144,0,0,1,.061.2l-1.221,3.438a.16.16,0,0,1-.163.122H-678.6a.176.176,0,0,1-.183-.142.182.182,0,0,1,.081-.183,1.98,1.98,0,0,0,.407-.305,1.1,1.1,0,0,0,.254-.428,3.038,3.038,0,0,0,.132-.682q.041-.418.041-1.09v-8.455q0-.672-.041-1.09a3.038,3.038,0,0,0-.132-.682,1.1,1.1,0,0,0-.254-.428,1.989,1.989,0,0,0-.407-.306.182.182,0,0,1-.081-.183.176.176,0,0,1,.183-.143l7.568.02a2.805,2.805,0,0,0,.407-.02,1.325,1.325,0,0,0,.305-.1.139.139,0,0,1,.163.02.176.176,0,0,1,.081.143v3.173a.158.158,0,0,1-.1.163.184.184,0,0,1-.2-.041,3.429,3.429,0,0,0-.732-.549,1.96,1.96,0,0,0-.915-.183h-2.848v3.092h2.889a.676.676,0,0,0,.214-.031q.092-.031.254-.092a.139.139,0,0,1,.163.02.146.146,0,0,1,.081.142v2.868a.142.142,0,0,1-.122.163.079.079,0,0,1-.092.02.272.272,0,0,1-.092-.061,1.136,1.136,0,0,0-.509-.407,3,3,0,0,0-1.017-.122h-1.77v3.3l1.282-.02a11.119,11.119,0,0,0,1.221-.061,6.3,6.3,0,0,0,1.017-.193,4.8,4.8,0,0,0,.885-.346,4.9,4.9,0,0,0,.824-.539A.185.185,0,0,1-669.443-51.734Zm8.259-3.885a2.217,2.217,0,0,1,.661.732,4.768,4.768,0,0,1,.407.936A5.66,5.66,0,0,1-659.9-53a6.188,6.188,0,0,1,.061.773,6.43,6.43,0,0,1-.346,2.319,2.625,2.625,0,0,1-1.078,1.322,5.248,5.248,0,0,1-2.685.61l-3.56.02a.165.165,0,0,1-.163-.142l-.956-3.438q-.041-.1.081-.183a.118.118,0,0,1,.081-.02.283.283,0,0,1,.122.02,5.439,5.439,0,0,0,.824.549,4.469,4.469,0,0,0,.875.356,6.033,6.033,0,0,0,1.007.193,11.121,11.121,0,0,0,1.221.061,1.71,1.71,0,0,0,.9-.244,1.591,1.591,0,0,0,.59-.568,1.2,1.2,0,0,0,.112-.345,2.636,2.636,0,0,0,.051-.538,2.749,2.749,0,0,0-.061-.579,1,1,0,0,0-.224-.467,2.556,2.556,0,0,0-.427-.264,3.177,3.177,0,0,0-.559-.183,3.457,3.457,0,0,0-.8-.081,7.145,7.145,0,0,1-1.617-.142,2.914,2.914,0,0,1-1.048-.487,2.3,2.3,0,0,1-.9-1.178,6.7,6.7,0,0,1-.264-2.132,6.393,6.393,0,0,1,.346-2.325,2.7,2.7,0,0,1,1.1-1.33,4.265,4.265,0,0,1,1.109-.457,5.345,5.345,0,0,1,1.393-.173l3.56.02a.159.159,0,0,1,.163.122l.956,3.418a.175.175,0,0,1-.061.183.357.357,0,0,1-.1.041.138.138,0,0,1-.1-.041,6.486,6.486,0,0,0-.824-.529,4.857,4.857,0,0,0-.885-.366,6.255,6.255,0,0,0-1.017-.214,9.548,9.548,0,0,0-1.221-.071h-.2a1.684,1.684,0,0,0-.366.041,2.015,2.015,0,0,0-.285.092,1.441,1.441,0,0,0-.244.132,1.728,1.728,0,0,0-.57,1.668.955.955,0,0,0,.193.559,1.444,1.444,0,0,0,.376.336,1.293,1.293,0,0,0,.4.163,1.556,1.556,0,0,0,.295.041h.376a6.839,6.839,0,0,1,.885.071,7.907,7.907,0,0,1,1.129.244A3.583,3.583,0,0,1-661.184-55.62Zm12.328-3.316q.02,0,.02.041a.162.162,0,0,1-.183.183.356.356,0,0,1-.1-.041,4.258,4.258,0,0,0-.854-.509,2.855,2.855,0,0,0-.875-.2h-1.668v9.093a7.715,7.715,0,0,0,.041.875,1.936,1.936,0,0,0,.142.57,1.135,1.135,0,0,0,.254.366,1.839,1.839,0,0,0,.376.264q.1.02.1.183a.176.176,0,0,1-.183.142h-4.455q-.122,0-.163-.142a.182.182,0,0,1,.081-.183,3.152,3.152,0,0,0,.366-.254.9.9,0,0,0,.254-.336,2.085,2.085,0,0,0,.142-.5,4.343,4.343,0,0,0,.051-.722v-9.358h-1.648a2.854,2.854,0,0,0-.875.2,4.258,4.258,0,0,0-.854.509.185.185,0,0,1-.2,0q-.122-.041-.081-.183l.712-3.153a.364.364,0,0,1,.1-.1.349.349,0,0,1,.142-.02,2.2,2.2,0,0,0,.427.1,3.609,3.609,0,0,0,.549.041h6.469a3.676,3.676,0,0,0,.539-.041,2.208,2.208,0,0,0,.437-.1.349.349,0,0,1,.142.02q.081.041.081.1Zm7.649,1.872a8.333,8.333,0,0,0-.071-1.18,1.829,1.829,0,0,0-.285-.793,1.223,1.223,0,0,0-.62-.448,3.344,3.344,0,0,0-1.078-.142,3.424,3.424,0,0,0-1.1.142,1.223,1.223,0,0,0-.62.448,1.744,1.744,0,0,0-.275.793,9.714,9.714,0,0,0-.061,1.18v4.089a9.714,9.714,0,0,0,.061,1.18,1.744,1.744,0,0,0,.275.793,1.223,1.223,0,0,0,.62.448,3.424,3.424,0,0,0,1.1.142,3.67,3.67,0,0,0,1.1-.132,1.17,1.17,0,0,0,.62-.437,1.743,1.743,0,0,0,.275-.793,9.906,9.906,0,0,0,.061-1.2Zm2.075-3.824a3.868,3.868,0,0,1,.692,1.505,10,10,0,0,1,.224,2.319v4.089a10,10,0,0,1-.224,2.319,3.868,3.868,0,0,1-.692,1.505,3.006,3.006,0,0,1-1.221.875,6.768,6.768,0,0,1-1.933.407,3.181,3.181,0,0,1-.417.02h-1.129a2.806,2.806,0,0,1-.407-.02,6.768,6.768,0,0,1-1.933-.407,3.006,3.006,0,0,1-1.221-.875,3.868,3.868,0,0,1-.692-1.505,10,10,0,0,1-.224-2.319v-4.089a10,10,0,0,1,.224-2.319,3.868,3.868,0,0,1,.692-1.505,3.006,3.006,0,0,1,1.221-.875,6.768,6.768,0,0,1,1.933-.407,2.806,2.806,0,0,1,.407-.02h1.129a3.181,3.181,0,0,1,.417.02,6.768,6.768,0,0,1,1.933.407A3.006,3.006,0,0,1-639.132-60.889Zm6.021,5.859h.956a5.151,5.151,0,0,0,1.129-.092,1.2,1.2,0,0,0,.58-.295,1.192,1.192,0,0,0,.305-.62,5.969,5.969,0,0,0,.081-1.129,8.556,8.556,0,0,0-.061-1.109A1.375,1.375,0,0,0-630.4-59a1.047,1.047,0,0,0-.57-.356,4.059,4.059,0,0,0-1.078-.112h-1.058Zm7.165,6.713a.144.144,0,0,1,.163.163.162.162,0,0,1-.183.183h-4.073a.176.176,0,0,1-.122-.061,2.641,2.641,0,0,1-.326-.549q-.224-.448-.732-1.444-.285-.59-.6-1.221t-.6-1.18h-.692v2.645a1.671,1.671,0,0,0,.214.987,2.129,2.129,0,0,0,.58.5.131.131,0,0,1,.1.183.176.176,0,0,1-.183.142h-4.435a.184.184,0,0,1-.163-.1.17.17,0,0,1,0-.163.036.036,0,0,1,.041-.041,5.846,5.846,0,0,0,.519-.539,1.374,1.374,0,0,0,.254-.539,6.272,6.272,0,0,0,.031-.631q.01-.509.02-1.282t.02-1.76q.01-.987.01-2.055v-4.16q0-.671-.041-1.088a3.028,3.028,0,0,0-.132-.681,1.1,1.1,0,0,0-.254-.427,1.991,1.991,0,0,0-.407-.305.182.182,0,0,1-.081-.183.176.176,0,0,1,.183-.142h4.688a12.029,12.029,0,0,1,2.467.234,3.213,3.213,0,0,1,1.488.743,3.008,3.008,0,0,1,.856,1.465,9.3,9.3,0,0,1,.265,2.461,6.656,6.656,0,0,1-.573,3.153,2.842,2.842,0,0,1-1.721,1.3l2.014,3.255a3.035,3.035,0,0,0,.417.539,2.412,2.412,0,0,0,.407.336,2.185,2.185,0,0,0,.346.183A1.989,1.989,0,0,0-625.945-48.317Zm9.963-3.418a.144.144,0,0,1,.061.2l-1.221,3.438a.16.16,0,0,1-.163.122h-7.832a.176.176,0,0,1-.183-.142.182.182,0,0,1,.081-.183,1.984,1.984,0,0,0,.407-.305,1.106,1.106,0,0,0,.254-.428,3.035,3.035,0,0,0,.132-.682q.041-.418.041-1.09v-8.455q0-.672-.041-1.09a3.035,3.035,0,0,0-.132-.682,1.106,1.106,0,0,0-.254-.428,1.992,1.992,0,0,0-.407-.306.182.182,0,0,1-.081-.183.176.176,0,0,1,.183-.143l7.568.02a2.806,2.806,0,0,0,.407-.02,1.326,1.326,0,0,0,.305-.1.139.139,0,0,1,.163.02.176.176,0,0,1,.081.143v3.173a.158.158,0,0,1-.1.163.184.184,0,0,1-.2-.041,3.427,3.427,0,0,0-.732-.549,1.96,1.96,0,0,0-.915-.183h-2.848v3.092h2.889a.676.676,0,0,0,.214-.031q.092-.031.254-.092a.139.139,0,0,1,.163.02.146.146,0,0,1,.081.142v2.868a.142.142,0,0,1-.122.163.079.079,0,0,1-.091.02.27.27,0,0,1-.092-.061,1.136,1.136,0,0,0-.509-.407,3,3,0,0,0-1.017-.122h-1.77v3.3l1.282-.02a11.12,11.12,0,0,0,1.221-.061,6.3,6.3,0,0,0,1.017-.193,4.8,4.8,0,0,0,.885-.346,4.9,4.9,0,0,0,.824-.539A.185.185,0,0,1-615.982-51.734Zm15.6-1.363a2.162,2.162,0,0,0,.02.305q0,.142.01.285t.01.305q0,.163-.01.295t-.01.254a1.88,1.88,0,0,0-.02.264,3.339,3.339,0,0,1-1.18,2.706,3.259,3.259,0,0,1-1.231.539,8.5,8.5,0,0,1-1.882.173h-5.655a.16.16,0,0,1-.163-.122q-.081-.1.041-.183a4.531,4.531,0,0,0,.478-.468,1.308,1.308,0,0,0,.254-.468,2.7,2.7,0,0,0,.1-.641q.02-.376.02-1.027v-8.361q0-.671-.041-1.088a3.031,3.031,0,0,0-.132-.681,1.1,1.1,0,0,0-.254-.427,1.988,1.988,0,0,0-.407-.305.182.182,0,0,1-.081-.183.176.176,0,0,1,.183-.142h5.411a10.729,10.729,0,0,1,1.933.173,3.04,3.04,0,0,1,1.221.519,3.69,3.69,0,0,1,1.078,3.072,5.1,5.1,0,0,1-.305,1.872,2.107,2.107,0,0,1-1.261,1.16A2.426,2.426,0,0,1-600.379-53.1Zm-4.923-3.214a3.746,3.746,0,0,0,.8-.071.956.956,0,0,0,.5-.264,1.083,1.083,0,0,0,.254-.539,4.451,4.451,0,0,0,.071-.875,2.8,2.8,0,0,0-.081-.763.748.748,0,0,0-.285-.417,1.162,1.162,0,0,0-.529-.183,6.747,6.747,0,0,0-.814-.041H-606.6v3.153Zm-1.3,2.339v3.4h1.119a5.76,5.76,0,0,0,1.444-.132.919.919,0,0,0,.631-.7.627.627,0,0,0,.041-.234,1.54,1.54,0,0,1,.02-.254,2.47,2.47,0,0,1,.02-.305,2.162,2.162,0,0,1-.02-.305,2,2,0,0,1-.02-.285.832.832,0,0,0-.041-.264,1.366,1.366,0,0,0-.132-.4.736.736,0,0,0-.275-.285,1.5,1.5,0,0,0-.478-.173,3.887,3.887,0,0,0-.763-.061Zm20.119,5.676a.137.137,0,0,1,.081.183.165.165,0,0,1-.163.142h-5a.165.165,0,0,1-.163-.142.137.137,0,0,1,.081-.183,2.771,2.771,0,0,0,.58-.4.347.347,0,0,0,.071-.275,4.439,4.439,0,0,0-.112-.6,6.65,6.65,0,0,0-.336-1.048h-3.377q-.081.244-.153.529l-.132.529q-.061.244-.092.427a1.96,1.96,0,0,1-.051.244.369.369,0,0,0,.081.254,2.337,2.337,0,0,0,.509.315.184.184,0,0,1,.1.163q0,.183-.163.183h-4.638a.176.176,0,0,1-.183-.142q-.041-.1.081-.183.285-.183.488-.336a2.325,2.325,0,0,0,.376-.356,3.47,3.47,0,0,0,.336-.478,6.958,6.958,0,0,0,.346-.681q.02-.061.153-.529t.336-1.21q.2-.743.468-1.668t.529-1.882q.264-.956.529-1.882t.468-1.668q.2-.743.336-1.21t.153-.529a.569.569,0,0,0,.041-.214,1.166,1.166,0,0,0-.041-.275.84.84,0,0,0-.224-.264,2.018,2.018,0,0,0-.326-.244q-.142-.061-.1-.183a.165.165,0,0,1,.163-.142h3.743a.16.16,0,0,1,.163.122l3.54,11.779q.183.407.346.692a3.239,3.239,0,0,0,.326.478,2.6,2.6,0,0,0,.366.356A4.66,4.66,0,0,0-586.485-48.3Zm-5.615-4.659-1.1-4.435-1.037,4.435Zm9.968-2.075h.956a5.151,5.151,0,0,0,1.129-.092,1.2,1.2,0,0,0,.58-.295,1.192,1.192,0,0,0,.305-.62,5.969,5.969,0,0,0,.081-1.129,8.569,8.569,0,0,0-.061-1.109,1.375,1.375,0,0,0-.285-.722,1.047,1.047,0,0,0-.57-.356,4.059,4.059,0,0,0-1.078-.112h-1.058Zm7.165,6.713a.144.144,0,0,1,.163.163.162.162,0,0,1-.183.183h-4.073a.176.176,0,0,1-.122-.061,2.641,2.641,0,0,1-.326-.549q-.224-.448-.732-1.444-.285-.59-.6-1.221t-.6-1.18h-.692v2.645a1.67,1.67,0,0,0,.214.987,2.129,2.129,0,0,0,.58.5.131.131,0,0,1,.1.183.176.176,0,0,1-.183.142h-4.435a.184.184,0,0,1-.163-.1.171.171,0,0,1,0-.163.036.036,0,0,1,.041-.041,5.856,5.856,0,0,0,.519-.539,1.374,1.374,0,0,0,.254-.539,6.272,6.272,0,0,0,.031-.631q.01-.509.02-1.282t.02-1.76q.01-.987.01-2.055v-4.16q0-.671-.041-1.088a3.031,3.031,0,0,0-.132-.681,1.1,1.1,0,0,0-.254-.427,1.991,1.991,0,0,0-.407-.305.182.182,0,0,1-.081-.183.176.176,0,0,1,.183-.142h4.688a12.029,12.029,0,0,1,2.467.234,3.213,3.213,0,0,1,1.488.743,3.008,3.008,0,0,1,.856,1.465,9.3,9.3,0,0,1,.265,2.461,6.656,6.656,0,0,1-.573,3.153,2.842,2.842,0,0,1-1.721,1.3l2.014,3.255a3.035,3.035,0,0,0,.417.539,2.407,2.407,0,0,0,.407.336,2.182,2.182,0,0,0,.346.183A1.986,1.986,0,0,0-574.966-48.317Zm10.757-4.781a2.162,2.162,0,0,0,.02.305q0,.142.01.285t.01.305q0,.163-.01.295t-.01.254a1.88,1.88,0,0,0-.02.264,3.339,3.339,0,0,1-1.18,2.706,3.26,3.26,0,0,1-1.231.539,8.5,8.5,0,0,1-1.882.173h-5.655a.16.16,0,0,1-.163-.122q-.081-.1.041-.183a4.531,4.531,0,0,0,.478-.468,1.307,1.307,0,0,0,.254-.468,2.7,2.7,0,0,0,.1-.641q.02-.376.02-1.027v-8.361q0-.671-.041-1.088a3.031,3.031,0,0,0-.132-.681,1.1,1.1,0,0,0-.254-.427,1.991,1.991,0,0,0-.407-.305.182.182,0,0,1-.081-.183.176.176,0,0,1,.183-.142h5.411a10.729,10.729,0,0,1,1.933.173,3.04,3.04,0,0,1,1.221.519,3.69,3.69,0,0,1,1.078,3.072,5.1,5.1,0,0,1-.305,1.872,2.107,2.107,0,0,1-1.261,1.16A2.426,2.426,0,0,1-564.209-53.1Zm-4.923-3.214a3.746,3.746,0,0,0,.8-.071.956.956,0,0,0,.5-.264,1.083,1.083,0,0,0,.254-.539,4.451,4.451,0,0,0,.071-.875,2.807,2.807,0,0,0-.081-.763.748.748,0,0,0-.285-.417,1.162,1.162,0,0,0-.529-.183,6.748,6.748,0,0,0-.814-.041h-1.221v3.153Zm-1.3,2.339v3.4h1.119a5.759,5.759,0,0,0,1.444-.132.919.919,0,0,0,.631-.7.627.627,0,0,0,.041-.234,1.54,1.54,0,0,1,.02-.254,2.47,2.47,0,0,1,.02-.305,2.162,2.162,0,0,1-.02-.305,2,2,0,0,1-.02-.285.832.832,0,0,0-.041-.264,1.366,1.366,0,0,0-.132-.4.736.736,0,0,0-.275-.285,1.5,1.5,0,0,0-.478-.173,3.887,3.887,0,0,0-.763-.061Zm16.4,2.238a.144.144,0,0,1,.061.2l-1.221,3.438a.16.16,0,0,1-.163.122h-7.832a.176.176,0,0,1-.183-.142.182.182,0,0,1,.081-.183,1.98,1.98,0,0,0,.407-.305,1.1,1.1,0,0,0,.254-.428,3.035,3.035,0,0,0,.132-.682q.041-.418.041-1.09v-8.455q0-.672-.041-1.09a3.035,3.035,0,0,0-.132-.682,1.1,1.1,0,0,0-.254-.428,1.989,1.989,0,0,0-.407-.306.182.182,0,0,1-.081-.183.176.176,0,0,1,.183-.143l7.568.02a2.805,2.805,0,0,0,.407-.02,1.325,1.325,0,0,0,.305-.1.139.139,0,0,1,.163.02.176.176,0,0,1,.081.143v3.173a.158.158,0,0,1-.1.163.184.184,0,0,1-.2-.041,3.427,3.427,0,0,0-.732-.549,1.96,1.96,0,0,0-.915-.183h-2.848v3.092h2.889a.676.676,0,0,0,.214-.031q.092-.031.254-.092a.139.139,0,0,1,.163.02.146.146,0,0,1,.081.142v2.868a.142.142,0,0,1-.122.163.079.079,0,0,1-.092.02.272.272,0,0,1-.092-.061,1.136,1.136,0,0,0-.509-.407,3,3,0,0,0-1.017-.122h-1.77v3.3l1.282-.02a11.121,11.121,0,0,0,1.221-.061,6.3,6.3,0,0,0,1.017-.193,4.8,4.8,0,0,0,.885-.346,4.9,4.9,0,0,0,.824-.539A.185.185,0,0,1-554.038-51.734Zm4.679-3.3h.956a5.151,5.151,0,0,0,1.129-.092,1.2,1.2,0,0,0,.58-.295,1.192,1.192,0,0,0,.305-.62,5.974,5.974,0,0,0,.081-1.129,8.567,8.567,0,0,0-.061-1.109,1.376,1.376,0,0,0-.285-.722,1.048,1.048,0,0,0-.57-.356,4.058,4.058,0,0,0-1.078-.112h-1.058Zm7.165,6.713a.144.144,0,0,1,.163.163.162.162,0,0,1-.183.183h-4.073a.176.176,0,0,1-.122-.061,2.642,2.642,0,0,1-.325-.549q-.224-.448-.732-1.444-.285-.59-.6-1.221t-.6-1.18h-.692v2.645a1.671,1.671,0,0,0,.214.987,2.128,2.128,0,0,0,.58.5.131.131,0,0,1,.1.183.176.176,0,0,1-.183.142h-4.435a.184.184,0,0,1-.163-.1.171.171,0,0,1,0-.163.036.036,0,0,1,.041-.041,5.856,5.856,0,0,0,.519-.539,1.374,1.374,0,0,0,.254-.539,6.272,6.272,0,0,0,.031-.631q.01-.509.02-1.282t.02-1.76q.01-.987.01-2.055v-4.16q0-.671-.041-1.088a3.031,3.031,0,0,0-.132-.681,1.1,1.1,0,0,0-.254-.427,1.988,1.988,0,0,0-.407-.305.182.182,0,0,1-.081-.183.176.176,0,0,1,.183-.142h4.688a12.029,12.029,0,0,1,2.467.234,3.213,3.213,0,0,1,1.488.743,3.008,3.008,0,0,1,.856,1.465,9.3,9.3,0,0,1,.265,2.461,6.656,6.656,0,0,1-.573,3.153,2.842,2.842,0,0,1-1.721,1.3l2.014,3.255a3.035,3.035,0,0,0,.417.539,2.407,2.407,0,0,0,.407.336,2.185,2.185,0,0,0,.346.183A1.989,1.989,0,0,0-542.193-48.317Z" transform="translate(1409.668 2186.191)" fill="#e4e4e4"/>
  </g>
</svg>
