<svg width="48" height="54" viewBox="0 0 48 54" fill="none" xmlns="http://www.w3.org/2000/svg">
<path d="M46.19 9.32502C38.616 7.22794 31.35 4.14596 24.578 0.158025C24.4031 0.0546536 24.2037 0.00012207 24.0005 0.00012207C23.7974 0.00012207 23.5979 0.0546536 23.423 0.158025C16.6639 4.17215 9.39398 7.25564 1.81003 9.32502C1.56914 9.39098 1.3567 9.53448 1.20558 9.73332C1.05446 9.93217 0.97308 10.1753 0.974031 10.425V22.027C0.915104 26.5699 1.78392 31.0771 3.52729 35.2726C5.27066 39.4681 7.8519 43.2637 11.113 46.427C16.093 51.3 21.894 54 24 54C26.106 54 31.907 51.3 36.886 46.422C40.1472 43.2587 42.7284 39.4631 44.4718 35.2676C46.2151 31.0721 47.084 26.5649 47.025 22.022V10.42C47.026 10.1703 46.9446 9.92717 46.7935 9.72832C46.6424 9.52948 46.4299 9.38598 46.189 9.32002L46.19 9.32502ZM44.754 22.025C44.8105 26.2647 44.0012 30.4713 42.3756 34.3874C40.75 38.3035 38.3424 41.8467 35.3 44.8C30.4 49.6 25.167 51.729 24 51.729C22.833 51.729 17.6 49.6 12.7 44.8C9.65782 41.8468 7.25026 38.3038 5.62468 34.3879C3.9991 30.472 3.18971 26.2655 3.24603 22.026V11.282C10.5088 9.22605 17.4823 6.25914 24 2.45202C30.5307 6.23271 37.5004 9.19818 44.753 11.282L44.754 22.025Z" fill="#83B933"/>
<path d="M13.932 11.155C13.8217 10.8747 13.6045 10.6497 13.3283 10.5295C13.052 10.4093 12.7394 10.4037 12.459 10.514C10.4224 11.314 8.35902 12.0433 6.26902 12.702C6.03747 12.7737 5.83493 12.9176 5.69099 13.1126C5.54705 13.3077 5.46927 13.5436 5.46902 13.786V18.173C5.46902 18.4743 5.58871 18.7632 5.80175 18.9763C6.01479 19.1893 6.30374 19.309 6.60502 19.309C6.90631 19.309 7.19526 19.1893 7.4083 18.9763C7.62134 18.7632 7.74102 18.4743 7.74102 18.173V14.616C9.60769 14.0113 11.4567 13.3487 13.288 12.628C13.4271 12.5737 13.5541 12.4924 13.6617 12.389C13.7694 12.2855 13.8556 12.1618 13.9154 12.025C13.9752 11.8882 14.0075 11.741 14.0103 11.5917C14.0132 11.4424 13.9866 11.294 13.932 11.155Z" fill="#83B933"/>
<path d="M16.089 11.371C16.2463 11.3696 16.4016 11.3356 16.545 11.271L16.566 11.262C16.7061 11.2042 16.8331 11.119 16.9397 11.0114C17.0463 10.9038 17.1303 10.7759 17.1868 10.6353C17.2433 10.4947 17.271 10.3443 17.2685 10.1928C17.2659 10.0413 17.2331 9.89192 17.1719 9.75332C17.1108 9.61473 17.0225 9.48977 16.9123 9.38579C16.8022 9.28181 16.6723 9.20092 16.5304 9.14788C16.3885 9.09483 16.2374 9.0707 16.0861 9.07691C15.9347 9.08312 15.7861 9.11955 15.649 9.18404L15.63 9.20004C15.3908 9.30459 15.1949 9.48844 15.0754 9.72057C14.9559 9.95271 14.9201 10.2189 14.974 10.4744C15.0279 10.7299 15.1683 10.9589 15.3714 11.123C15.5745 11.287 15.8279 11.3761 16.089 11.375V11.371Z" fill="#83B933"/>
<path d="M37.534 36.627C37.2818 36.4624 36.9745 36.4046 36.6797 36.4665C36.3849 36.5284 36.1268 36.7048 35.962 36.957C35.0057 38.4159 33.9135 39.781 32.7 41.034C31.6883 42.0811 30.5993 43.0505 29.442 43.934C29.3234 44.0245 29.2237 44.1375 29.1487 44.2665C29.0737 44.3955 29.0249 44.538 29.005 44.6858C28.985 44.8337 28.9944 44.9841 29.0326 45.1283C29.0708 45.2726 29.1371 45.4079 29.2275 45.5265C29.318 45.6452 29.431 45.7448 29.56 45.8198C29.689 45.8948 29.8315 45.9437 29.9794 45.9636C30.1272 45.9835 30.2776 45.9741 30.4218 45.9359C30.5661 45.8977 30.7014 45.8315 30.82 45.741C32.0681 44.7886 33.2427 43.7436 34.334 42.615C35.6472 41.2581 36.8288 39.7798 37.863 38.2C37.9448 38.0751 38.0011 37.9354 38.0288 37.7887C38.0565 37.6421 38.055 37.4914 38.0245 37.3454C37.9939 37.1993 37.9349 37.0606 37.8507 36.9374C37.7666 36.8141 37.659 36.7087 37.534 36.627Z" fill="#83B933"/>
<path d="M26.8 45.715L26.735 45.753C26.603 45.8262 26.4869 45.925 26.3934 46.0436C26.3 46.1621 26.2312 46.2981 26.1909 46.4436C26.1506 46.5891 26.1398 46.7412 26.159 46.8909C26.1781 47.0406 26.227 47.1851 26.3026 47.3157C26.3782 47.4464 26.4791 47.5606 26.5994 47.6518C26.7197 47.743 26.857 47.8094 27.0032 47.8469C27.1494 47.8845 27.3016 47.8925 27.451 47.8705C27.6003 47.8486 27.7438 47.7971 27.873 47.719L27.948 47.675C28.0802 47.6015 28.1964 47.5022 28.2897 47.3832C28.383 47.2641 28.4516 47.1276 28.4914 46.9816C28.5312 46.8357 28.5415 46.6833 28.5217 46.5333C28.5018 46.3833 28.4522 46.2388 28.3757 46.1083C28.2993 45.9778 28.1975 45.8638 28.0764 45.7731C27.9554 45.6825 27.8174 45.6169 27.6706 45.5803C27.5238 45.5436 27.3712 45.5367 27.2217 45.5598C27.0722 45.583 26.9289 45.6357 26.8 45.715Z" fill="#83B933"/>
<path d="M16.257 24.682C15.5628 23.9965 14.6255 23.6135 13.6499 23.6166C12.6742 23.6197 11.7394 24.0086 11.0495 24.6985C10.3596 25.3884 9.9707 26.3232 9.96761 27.2989C9.96452 28.2745 10.3475 29.2118 11.033 29.906L17.74 36.613C18.4329 37.3055 19.3724 37.6945 20.352 37.6945C21.3316 37.6945 22.2712 37.3055 22.964 36.613L36.964 22.613C37.6495 21.9188 38.0326 20.9815 38.0295 20.0059C38.0264 19.0302 37.6374 18.0954 36.9475 17.4055C36.2576 16.7156 35.3228 16.3267 34.3472 16.3236C33.3715 16.3205 32.4343 16.7035 31.74 17.389L20.35 28.779L16.25 24.679L16.257 24.682ZM33.349 18.994C33.4782 18.851 33.635 18.7356 33.8101 18.655C33.9851 18.5744 34.1748 18.5303 34.3674 18.5252C34.5601 18.5202 34.7517 18.5543 34.9308 18.6256C35.1098 18.6969 35.2725 18.8039 35.409 18.94C35.5454 19.0761 35.6527 19.2385 35.7245 19.4174C35.7962 19.5962 35.8309 19.7878 35.8263 19.9805C35.8217 20.1732 35.778 20.3629 35.6979 20.5381C35.6177 20.7134 35.5028 20.8705 35.36 21L21.36 35C21.0932 35.2665 20.7316 35.4161 20.3545 35.4161C19.9775 35.4161 19.6158 35.2665 19.349 35L12.64 28.3C12.3749 28.033 12.2263 27.6718 12.227 27.2955C12.2276 26.9192 12.3774 26.5585 12.6435 26.2924C12.9095 26.0264 13.2702 25.8766 13.6465 25.876C14.0228 25.8753 14.384 26.0238 14.651 26.289L19.551 31.189C19.7641 31.4019 20.0529 31.5215 20.354 31.5215C20.6552 31.5215 20.944 31.4019 21.157 31.189L33.349 18.993V18.994Z" fill="#83B933"/>
</svg>
