<svg width="72" height="46" viewBox="0 0 72 46" fill="none" xmlns="http://www.w3.org/2000/svg">
<path d="M66.59 19.577L64.748 12.208C64.9975 12.1548 65.2212 12.0177 65.3817 11.8195C65.5422 11.6213 65.6299 11.374 65.63 11.119V9.93095C65.6284 8.69076 65.1351 7.50181 64.2581 6.62486C63.3812 5.74791 62.1922 5.25454 60.952 5.25295H52.56V2.80195C52.56 2.19196 52.3177 1.60694 51.8864 1.17561C51.455 0.744274 50.87 0.501953 50.26 0.501953H7.48503C7.18299 0.501953 6.88391 0.561445 6.60486 0.677031C6.32581 0.792616 6.07226 0.962033 5.85868 1.17561C5.64511 1.38918 5.47569 1.64273 5.36011 1.92178C5.24452 2.20083 5.18503 2.49991 5.18503 2.80195V23.002C5.18503 23.2974 5.3024 23.5808 5.51131 23.7897C5.72023 23.9986 6.00358 24.116 6.29903 24.116C6.59448 24.116 6.87783 23.9986 7.08675 23.7897C7.29566 23.5808 7.41303 23.2974 7.41303 23.002V2.80195C7.41303 2.78233 7.42083 2.7635 7.4347 2.74963C7.44858 2.73575 7.4674 2.72795 7.48703 2.72795H50.258C50.2777 2.72795 50.2965 2.73575 50.3104 2.74963C50.3242 2.7635 50.332 2.78233 50.332 2.80195V23.002C50.332 23.2974 50.4494 23.5808 50.6583 23.7897C50.8672 23.9986 51.1506 24.116 51.446 24.116C51.7415 24.116 52.0248 23.9986 52.2337 23.7897C52.4427 23.5808 52.56 23.2974 52.56 23.002V21.738H65.706C66.4756 21.7396 67.2249 21.9847 67.8466 22.4383C68.4684 22.8919 68.9306 23.5306 69.167 24.263H65.703C65.4076 24.263 65.1242 24.3803 64.9153 24.5892C64.7064 24.7982 64.589 25.0815 64.589 25.377V27.753C64.5901 28.6782 64.9581 29.5653 65.6124 30.2196C66.2667 30.8739 67.1538 31.2419 68.079 31.243H69.341V36.143H66.431C65.9527 34.7553 65.0533 33.5515 63.8582 32.6993C62.663 31.8472 61.2318 31.3892 59.764 31.3892C58.2962 31.3892 56.865 31.8472 55.6699 32.6993C54.4748 33.5515 53.5754 34.7553 53.097 36.143H52.561V27.752C52.561 27.4565 52.4437 27.1732 52.2347 26.9642C52.0258 26.7553 51.7425 26.638 51.447 26.638C51.1516 26.638 50.8682 26.7553 50.6593 26.9642C50.4504 27.1732 50.333 27.4565 50.333 27.752V36.143H27.222C26.7437 34.7553 25.8443 33.5515 24.6492 32.6993C23.454 31.8472 22.0228 31.3892 20.555 31.3892C19.0872 31.3892 17.656 31.8472 16.4609 32.6993C15.2658 33.5515 14.3664 34.7553 13.888 36.143H7.48803C7.47815 36.1434 7.46828 36.1418 7.45902 36.1383C7.44976 36.1348 7.44129 36.1295 7.43411 36.1227C7.42693 36.1159 7.42119 36.1077 7.41723 36.0987C7.41326 36.0896 7.41116 36.0798 7.41103 36.07V33.619H12.238C12.5335 33.619 12.8168 33.5016 13.0257 33.2927C13.2347 33.0838 13.352 32.8004 13.352 32.505C13.352 32.2095 13.2347 31.9262 13.0257 31.7172C12.8168 31.5083 12.5335 31.391 12.238 31.391H1.54503C1.24958 31.391 0.966229 31.5083 0.757313 31.7172C0.548398 31.9262 0.43103 32.2095 0.43103 32.505C0.43103 32.8004 0.548398 33.0838 0.757313 33.2927C0.966229 33.5016 1.24958 33.619 1.54503 33.619H5.18403V36.07C5.18403 36.68 5.42635 37.265 5.85768 37.6963C6.28902 38.1276 6.87403 38.37 7.48403 38.37H13.501C13.501 38.395 13.501 38.4189 13.501 38.444C13.501 40.3149 14.2443 42.1093 15.5672 43.4322C16.8902 44.7552 18.6846 45.4985 20.5555 45.4985C22.4265 45.4985 24.2208 44.7552 25.5438 43.4322C26.8668 42.1093 27.61 40.3149 27.61 38.444C27.61 38.4189 27.61 38.395 27.61 38.37H52.71C52.71 38.395 52.71 38.4189 52.71 38.444C52.71 40.3149 53.4533 42.1093 54.7762 43.4322C56.0992 44.7552 57.8936 45.4985 59.7645 45.4985C61.6355 45.4985 63.4298 44.7552 64.7528 43.4322C66.0758 42.1093 66.819 40.3149 66.819 38.444C66.819 38.4189 66.819 38.395 66.819 38.37H70.46C70.7555 38.37 71.0388 38.2526 71.2477 38.0437C71.4567 37.8348 71.574 37.5514 71.574 37.256V25.376C71.5725 23.974 71.0697 22.6188 70.1564 21.5552C69.2431 20.4915 67.9796 19.7895 66.594 19.576L66.59 19.577ZM52.56 7.47695H60.951C61.6009 7.47748 62.224 7.73588 62.6836 8.19542C63.1431 8.65496 63.4015 9.27807 63.402 9.92795V10.002H52.56V7.47695ZM52.56 19.507V12.233H62.46L64.279 19.51H52.56V19.507ZM20.555 43.27C19.6003 43.27 18.6671 42.9869 17.8733 42.4565C17.0795 41.9261 16.4608 41.1722 16.0955 40.2902C15.7301 39.4081 15.6345 38.4376 15.8208 37.5013C16.007 36.5649 16.4668 35.7048 17.1418 35.0297C17.8169 34.3547 18.677 33.895 19.6133 33.7087C20.5497 33.5224 21.5202 33.618 22.4022 33.9834C23.2843 34.3487 24.0381 34.9674 24.5685 35.7612C25.0989 36.555 25.382 37.4883 25.382 38.443C25.3807 39.7227 24.8717 40.9497 23.9668 41.8547C23.0618 42.7596 21.8348 43.2686 20.555 43.27ZM59.763 43.27C58.8083 43.27 57.8751 42.9869 57.0813 42.4565C56.2875 41.9261 55.6688 41.1722 55.3035 40.2902C54.9381 39.4081 54.8425 38.4376 55.0288 37.5013C55.215 36.5649 55.6748 35.7048 56.3498 35.0297C57.0249 34.3547 57.885 33.895 58.8213 33.7087C59.7577 33.5224 60.7282 33.618 61.6102 33.9834C62.4923 34.3487 63.2461 34.9674 63.7765 35.7612C64.3069 36.555 64.59 37.4883 64.59 38.443C64.5887 39.7227 64.0797 40.9497 63.1748 41.8547C62.2698 42.7596 61.0428 43.2686 59.763 43.27ZM69.342 29.012H68.08C67.7455 29.0114 67.4248 28.8783 67.1882 28.6417C66.9517 28.4052 66.8186 28.0845 66.818 27.75V26.49H69.343V29.015L69.342 29.012Z" fill="#83B933"/>
<path d="M20.555 36.1429C20.1001 36.1429 19.6554 36.2778 19.2772 36.5306C18.899 36.7833 18.6042 37.1425 18.4301 37.5628C18.256 37.983 18.2105 38.4455 18.2992 38.8917C18.3879 39.3378 18.607 39.7476 18.9287 40.0693C19.2503 40.391 19.6601 40.61 20.1063 40.6987C20.5525 40.7875 21.0149 40.7419 21.4352 40.5679C21.8554 40.3938 22.2147 40.099 22.4674 39.7208C22.7201 39.3425 22.855 38.8978 22.855 38.4429C22.855 37.8329 22.6127 37.2479 22.1814 36.8166C21.75 36.3853 21.165 36.1429 20.555 36.1429Z" fill="#83B933"/>
<path d="M59.763 36.1429C59.3081 36.1429 58.8634 36.2778 58.4852 36.5306C58.107 36.7833 57.8122 37.1425 57.6381 37.5628C57.464 37.983 57.4185 38.4455 57.5072 38.8917C57.596 39.3378 57.815 39.7476 58.1367 40.0693C58.4583 40.391 58.8681 40.61 59.3143 40.6987C59.7605 40.7875 60.2229 40.7419 60.6432 40.5679C61.0635 40.3938 61.4227 40.099 61.6754 39.7208C61.9281 39.3425 62.063 38.8978 62.063 38.4429C62.063 37.8329 61.8207 37.2479 61.3894 36.8166C60.958 36.3853 60.373 36.1429 59.763 36.1429Z" fill="#83B933"/>
<path d="M46.694 31.391H30.06C29.7646 31.391 29.4812 31.5083 29.2723 31.7172C29.0634 31.9262 28.946 32.2095 28.946 32.505C28.946 32.8004 29.0634 33.0838 29.2723 33.2927C29.4812 33.5016 29.7646 33.619 30.06 33.619H46.694C46.9895 33.619 47.2728 33.5016 47.4818 33.2927C47.6907 33.0838 47.808 32.8004 47.808 32.505C47.808 32.2095 47.6907 31.9262 47.4818 31.7172C47.2728 31.5083 46.9895 31.391 46.694 31.391Z" fill="#83B933"/>
<path d="M18.179 26.6389H3.92101C3.62556 26.6389 3.34221 26.7563 3.13329 26.9652C2.92437 27.1741 2.80701 27.4575 2.80701 27.7529C2.80701 28.0484 2.92437 28.3317 3.13329 28.5407C3.34221 28.7496 3.62556 28.8669 3.92101 28.8669H18.179C18.4745 28.8669 18.7578 28.7496 18.9667 28.5407C19.1756 28.3317 19.293 28.0484 19.293 27.7529C19.293 27.4575 19.1756 27.1741 18.9667 26.9652C18.7578 26.7563 18.4745 26.6389 18.179 26.6389Z" fill="#83B933"/>
<path d="M39.164 11.519C38.9551 11.3102 38.6719 11.1929 38.3765 11.1929C38.0812 11.1929 37.7979 11.3102 37.589 11.519L27.683 21.425L22.53 16.272C22.4275 16.1645 22.3046 16.0787 22.1684 16.0194C22.0322 15.9602 21.8856 15.9288 21.7371 15.9271C21.5886 15.9253 21.4413 15.9533 21.3038 16.0093C21.1663 16.0653 21.0413 16.1483 20.9363 16.2533C20.8313 16.3583 20.7484 16.4832 20.6924 16.6207C20.6363 16.7582 20.6084 16.9056 20.6101 17.0541C20.6119 17.2025 20.6433 17.3492 20.7025 17.4853C20.7617 17.6215 20.8476 17.7445 20.955 17.847L26.896 23.788C27.1049 23.9967 27.3882 24.114 27.6835 24.114C27.9789 24.114 28.2621 23.9967 28.471 23.788L39.164 13.095C39.3728 12.8861 39.4901 12.6028 39.4901 12.3075C39.4901 12.0121 39.3728 11.7289 39.164 11.52V11.519Z" fill="#83B933"/>
</svg>
